<svg xmlns="http://www.w3.org/2000/svg" viewBox="0 0 1920 1080" fill="none">
  <defs>
    <linearGradient id="sky" x1="0" y1="0" x2="0" y2="1">
      <stop offset="0%" stop-color="#003d5c"/>
      <stop offset="100%" stop-color="#001a2e"/>
    </linearGradient>
    <linearGradient id="rw" x1="0" y1="0" x2="1" y2="0">
      <stop offset="0%" stop-color="#00A1DE" stop-opacity="0.35"/>
      <stop offset="50%" stop-color="#FAD201" stop-opacity="0.15"/>
      <stop offset="100%" stop-color="#20603D" stop-opacity="0.25"/>
    </linearGradient>
  </defs>
  <rect width="1920" height="1080" fill="url(#sky)"/>
  <rect width="1920" height="1080" fill="url(#rw)"/>
  <ellipse cx="1600" cy="200" rx="120" ry="120" fill="#FAD201" opacity="0.12"/>
  <rect x="0" y="620" width="1920" height="460" fill="#0a2540"/>
  <rect x="120" y="480" width="90" height="320" fill="#00A1DE" opacity="0.5"/>
  <rect x="240" y="420" width="110" height="380" fill="#1a3a5c"/>
  <rect x="380" y="500" width="80" height="300" fill="#00A1DE" opacity="0.4"/>
  <rect x="500" y="380" width="140" height="420" fill="#20603D" opacity="0.55"/>
  <rect x="680" y="450" width="100" height="350" fill="#1a3a5c"/>
  <rect x="820" y="360" width="160" height="440" fill="#00A1DE" opacity="0.45"/>
  <rect x="1020" y="490" width="90" height="310" fill="#20603D" opacity="0.5"/>
  <rect x="1150" y="400" width="130" height="400" fill="#1a3a5c"/>
  <rect x="1320" y="470" width="100" height="330" fill="#FAD201" opacity="0.35"/>
  <rect x="1460" y="350" width="150" height="450" fill="#00A1DE" opacity="0.4"/>
  <rect x="1650" y="430" width="120" height="370" fill="#20603D" opacity="0.45"/>
  <rect x="0" y="800" width="1920" height="4" fill="#00A1DE" opacity="0.6"/>
  <rect x="0" y="806" width="1920" height="4" fill="#FAD201" opacity="0.6"/>
  <rect x="0" y="812" width="1920" height="4" fill="#20603D" opacity="0.6"/>
</svg>
